<mxfile host="app.diagrams.net" agent="Mozilla/5.0 (Windows NT 10.0; Win64; x64; rv:138.0) Gecko/20100101 Firefox/138.0" version="27.0.9">
  <diagram name="PaginÄƒ-1" id="y9jRKCElQh4QS8b3FHTA">
    <mxGraphModel dx="1789" dy="1220" grid="1" gridSize="10" guides="1" tooltips="1" connect="1" arrows="1" fold="1" page="0" pageScale="1" pageWidth="1169" pageHeight="827" math="0" shadow="0" adaptiveColors="simple">
      <root>
        <mxCell id="0" />
        <mxCell id="1" parent="0" />
        <mxCell id="EwuwBW0J4vEEIveTq8Gk-1" value="Actor" style="shape=umlActor;verticalLabelPosition=bottom;verticalAlign=top;html=1;outlineConnect=0;hachureGap=4;fontFamily=Architects Daughter;fontSource=https%3A%2F%2Ffonts.googleapis.com%2Fcss%3Ffamily%3DArchitects%2BDaughter;labelBackgroundColor=none;sketch=1;curveFitting=1;jiggle=2;rounded=0;" vertex="1" parent="1">
          <mxGeometry x="-176" y="152" width="30" height="60" as="geometry" />
        </mxCell>
        <mxCell id="EwuwBW0J4vEEIveTq8Gk-4" value="" style="endArrow=classic;html=1;rounded=0;hachureGap=4;fontFamily=Architects Daughter;fontSource=https%3A%2F%2Ffonts.googleapis.com%2Fcss%3Ffamily%3DArchitects%2BDaughter;fontSize=12;startSize=8;endSize=8;curved=1;labelBackgroundColor=none;fontColor=default;sketch=1;curveFitting=1;jiggle=2;" edge="1" parent="1">
          <mxGeometry width="50" height="50" relative="1" as="geometry">
            <mxPoint x="-136" y="181.5" as="sourcePoint" />
            <mxPoint x="-66" y="181.5" as="targetPoint" />
          </mxGeometry>
        </mxCell>
        <mxCell id="EwuwBW0J4vEEIveTq8Gk-5" value="&lt;div style=&quot;line-height: 140%;&quot;&gt;&lt;font style=&quot;font-size: 17px;&quot;&gt;MainApp&lt;/font&gt;&lt;/div&gt;&lt;div&gt;(Frontend)&lt;/div&gt;" style="rounded=0;whiteSpace=wrap;html=1;sketch=1;curveFitting=1;jiggle=2;labelBackgroundColor=none;" vertex="1" parent="1">
          <mxGeometry x="-49" y="152" width="120" height="60" as="geometry" />
        </mxCell>
        <mxCell id="EwuwBW0J4vEEIveTq8Gk-6" value="" style="endArrow=classic;html=1;rounded=0;fontSize=12;startSize=8;endSize=8;curved=1;sketch=1;curveFitting=1;jiggle=2;labelBackgroundColor=none;fontColor=default;" edge="1" parent="1">
          <mxGeometry width="50" height="50" relative="1" as="geometry">
            <mxPoint x="78" y="170" as="sourcePoint" />
            <mxPoint x="161" y="126" as="targetPoint" />
          </mxGeometry>
        </mxCell>
        <mxCell id="EwuwBW0J4vEEIveTq8Gk-7" value="" style="endArrow=classic;html=1;rounded=0;fontSize=12;startSize=8;endSize=8;curved=1;sketch=1;curveFitting=1;jiggle=2;labelBackgroundColor=none;fontColor=default;" edge="1" parent="1">
          <mxGeometry width="50" height="50" relative="1" as="geometry">
            <mxPoint x="75" y="184.75" as="sourcePoint" />
            <mxPoint x="159" y="220" as="targetPoint" />
          </mxGeometry>
        </mxCell>
        <mxCell id="EwuwBW0J4vEEIveTq8Gk-8" value="" style="endArrow=classic;html=1;rounded=0;fontSize=12;startSize=8;endSize=8;curved=1;sketch=1;curveFitting=1;jiggle=2;labelBackgroundColor=none;fontColor=default;" edge="1" parent="1">
          <mxGeometry width="50" height="50" relative="1" as="geometry">
            <mxPoint x="80" y="215" as="sourcePoint" />
            <mxPoint x="140" y="310" as="targetPoint" />
          </mxGeometry>
        </mxCell>
        <mxCell id="EwuwBW0J4vEEIveTq8Gk-9" value="" style="endArrow=classic;html=1;rounded=0;fontSize=12;startSize=8;endSize=8;curved=1;sketch=1;curveFitting=1;jiggle=2;labelBackgroundColor=none;fontColor=default;" edge="1" parent="1">
          <mxGeometry width="50" height="50" relative="1" as="geometry">
            <mxPoint x="75" y="152" as="sourcePoint" />
            <mxPoint x="140" y="49" as="targetPoint" />
          </mxGeometry>
        </mxCell>
        <mxCell id="EwuwBW0J4vEEIveTq8Gk-10" value="&lt;div style=&quot;line-height: 140%;&quot;&gt;&lt;font style=&quot;font-size: 17px;&quot;&gt;Authentication&lt;/font&gt;&lt;/div&gt;&lt;div&gt;(Frontend)&lt;/div&gt;" style="rounded=0;whiteSpace=wrap;html=1;sketch=1;curveFitting=1;jiggle=2;labelBackgroundColor=none;" vertex="1" parent="1">
          <mxGeometry x="149" y="-28" width="120" height="60" as="geometry" />
        </mxCell>
        <mxCell id="EwuwBW0J4vEEIveTq8Gk-11" value="&lt;div style=&quot;line-height: 140%;&quot;&gt;&lt;font style=&quot;font-size: 17px;&quot;&gt;Dashbord&lt;/font&gt;&lt;/div&gt;&lt;div&gt;(Frontend)&lt;/div&gt;" style="rounded=0;whiteSpace=wrap;html=1;sketch=1;curveFitting=1;jiggle=2;labelBackgroundColor=none;" vertex="1" parent="1">
          <mxGeometry x="179" y="92" width="120" height="60" as="geometry" />
        </mxCell>
        <mxCell id="EwuwBW0J4vEEIveTq8Gk-12" value="&lt;div style=&quot;line-height: 140%;&quot;&gt;&lt;font style=&quot;font-size: 17px;&quot;&gt;Creating&lt;/font&gt;&lt;/div&gt;&lt;div&gt;(Frontend)&lt;/div&gt;" style="rounded=0;whiteSpace=wrap;html=1;sketch=1;curveFitting=1;jiggle=2;labelBackgroundColor=none;" vertex="1" parent="1">
          <mxGeometry x="179" y="212" width="120" height="60" as="geometry" />
        </mxCell>
        <mxCell id="EwuwBW0J4vEEIveTq8Gk-13" value="&lt;div style=&quot;line-height: 140%;&quot;&gt;&lt;font style=&quot;font-size: 17px;&quot;&gt;Location&lt;/font&gt;&lt;/div&gt;&lt;div&gt;(Frontend)&lt;/div&gt;" style="rounded=0;whiteSpace=wrap;html=1;sketch=1;curveFitting=1;jiggle=2;labelBackgroundColor=none;" vertex="1" parent="1">
          <mxGeometry x="149" y="332" width="120" height="60" as="geometry" />
        </mxCell>
        <mxCell id="EwuwBW0J4vEEIveTq8Gk-14" value="&lt;div style=&quot;line-height: 140%;&quot;&gt;&lt;font style=&quot;font-size: 17px;&quot;&gt;CoreApp&lt;/font&gt;&lt;/div&gt;&lt;div&gt;(Frontend)&lt;/div&gt;" style="rounded=0;whiteSpace=wrap;html=1;sketch=1;curveFitting=1;jiggle=2;labelBackgroundColor=none;" vertex="1" parent="1">
          <mxGeometry x="380" y="152" width="120" height="60" as="geometry" />
        </mxCell>
        <mxCell id="EwuwBW0J4vEEIveTq8Gk-15" value="" style="endArrow=classic;html=1;rounded=0;fontSize=12;startSize=8;endSize=8;curved=1;sketch=1;curveFitting=1;jiggle=2;labelBackgroundColor=none;fontColor=default;" edge="1" parent="1">
          <mxGeometry width="50" height="50" relative="1" as="geometry">
            <mxPoint x="288" y="22" as="sourcePoint" />
            <mxPoint x="381" y="126" as="targetPoint" />
          </mxGeometry>
        </mxCell>
        <mxCell id="EwuwBW0J4vEEIveTq8Gk-16" value="" style="endArrow=classic;html=1;rounded=0;fontSize=12;startSize=8;endSize=8;curved=1;sketch=1;curveFitting=1;jiggle=2;labelBackgroundColor=none;fontColor=default;" edge="1" parent="1">
          <mxGeometry width="50" height="50" relative="1" as="geometry">
            <mxPoint x="299" y="353" as="sourcePoint" />
            <mxPoint x="400" y="233" as="targetPoint" />
          </mxGeometry>
        </mxCell>
        <mxCell id="EwuwBW0J4vEEIveTq8Gk-17" value="" style="endArrow=classic;html=1;rounded=0;fontSize=12;startSize=8;endSize=8;curved=1;sketch=1;curveFitting=1;jiggle=2;labelBackgroundColor=none;fontColor=default;" edge="1" parent="1">
          <mxGeometry width="50" height="50" relative="1" as="geometry">
            <mxPoint x="313" y="263" as="sourcePoint" />
            <mxPoint x="363" y="213" as="targetPoint" />
          </mxGeometry>
        </mxCell>
        <mxCell id="EwuwBW0J4vEEIveTq8Gk-18" value="" style="endArrow=classic;html=1;rounded=0;fontSize=12;startSize=8;endSize=8;curved=1;sketch=1;curveFitting=1;jiggle=2;labelBackgroundColor=none;fontColor=default;" edge="1" parent="1">
          <mxGeometry width="50" height="50" relative="1" as="geometry">
            <mxPoint x="314" y="111" as="sourcePoint" />
            <mxPoint x="367" y="165" as="targetPoint" />
          </mxGeometry>
        </mxCell>
        <mxCell id="EwuwBW0J4vEEIveTq8Gk-19" value="" style="endArrow=classic;html=1;rounded=0;fontSize=12;startSize=8;endSize=8;curved=1;sketch=1;curveFitting=1;jiggle=2;labelBackgroundColor=none;fontColor=default;" edge="1" parent="1">
          <mxGeometry width="50" height="50" relative="1" as="geometry">
            <mxPoint x="504" y="180.5" as="sourcePoint" />
            <mxPoint x="594" y="181" as="targetPoint" />
          </mxGeometry>
        </mxCell>
        <mxCell id="EwuwBW0J4vEEIveTq8Gk-20" value="&lt;div style=&quot;line-height: 140%;&quot;&gt;&lt;font style=&quot;font-size: 17px;&quot;&gt;Spring Boot&lt;/font&gt;&lt;/div&gt;&lt;div&gt;(Backend)&lt;/div&gt;" style="rounded=0;whiteSpace=wrap;html=1;sketch=1;curveFitting=1;jiggle=2;labelBackgroundColor=none;" vertex="1" parent="1">
          <mxGeometry x="605" y="152" width="120" height="60" as="geometry" />
        </mxCell>
        <mxCell id="EwuwBW0J4vEEIveTq8Gk-22" value="" style="endArrow=classic;html=1;rounded=0;fontSize=12;startSize=8;endSize=8;curved=1;sketch=1;curveFitting=1;jiggle=2;labelBackgroundColor=none;fontColor=default;" edge="1" parent="1">
          <mxGeometry width="50" height="50" relative="1" as="geometry">
            <mxPoint x="735" y="181.73" as="sourcePoint" />
            <mxPoint x="825" y="182.23" as="targetPoint" />
          </mxGeometry>
        </mxCell>
        <mxCell id="EwuwBW0J4vEEIveTq8Gk-23" value="&lt;div style=&quot;line-height: 140%;&quot;&gt;MySql&lt;/div&gt;&lt;div&gt;(Database)&lt;/div&gt;" style="rounded=0;whiteSpace=wrap;html=1;sketch=1;curveFitting=1;jiggle=2;labelBackgroundColor=none;" vertex="1" parent="1">
          <mxGeometry x="830" y="152" width="120" height="60" as="geometry" />
        </mxCell>
      </root>
    </mxGraphModel>
  </diagram>
</mxfile>
